<svg xmlns="http://www.w3.org/2000/svg" version="1.1" xmlns:xlink="http://www.w3.org/1999/xlink" xmlns:svgjs="http://svgjs.com/svgjs" width="1440" height="560" preserveAspectRatio="none" viewBox="0 0 1440 560"><g mask="url(&quot;#SvgjsMask1006&quot;)" fill="none"><rect width="1440" height="560" x="0" y="0" fill="rgba(0, 110, 225, 1)"></rect><path d="M0,495.852C96.827,482.487,192.644,478.825,281.377,437.831C380.676,391.956,481.678,339.191,539.749,246.495C601.474,147.966,647.392,22.514,610.669,-87.801C574.441,-196.627,432.65,-223.181,355.225,-307.804C280.889,-389.052,273.519,-540.645,167.882,-571.755C62.26,-602.86,-30.338,-492.374,-132.559,-451.455C-222.963,-415.267,-335.512,-419.56,-398.289,-345.119C-460.923,-270.847,-438.729,-161.09,-457.771,-65.818C-478.168,36.237,-535.251,132.906,-514.202,234.828C-490.889,347.713,-438.938,470.893,-336.156,523.068C-233.841,575.006,-113.665,511.541,0,495.852" fill="#0058b4"></path><path d="M1440 1099.017C1540.311 1100.7150000000001 1617.095 1018.406 1709.518 979.3779999999999 1825.7640000000001 930.29 1989.2649999999999 948.822 2053.244 840.059 2116.12 733.172 2030.7069999999999 600 2003.9070000000002 478.922 1979.246 367.507 1975.4679999999998 246.974 1902.541 159.20600000000002 1828.9940000000001 70.69299999999998 1717.5149999999999 22.00400000000002 1604.831-1.3630000000000564 1497.636-23.591999999999985 1385.035-12.701999999999998 1284.696 31.08299999999997 1191.184 71.88900000000001 1137.042 162.90499999999997 1064.342 234.49 984.235 313.369 874.531 367.594 835.771 473.125 793.693 587.69 776.023 731.0360000000001 844.983 831.735 914.02 932.546 1064.826 920.288 1176.282 970.354 1267.348 1011.261 1340.182 1097.328 1440 1099.017" fill="#0f84ff"></path></g><defs><mask id="SvgjsMask1006"><rect width="1440" height="560" fill="#ffffff"></rect></mask></defs></svg>